#define 1451077470836_width 13
#define 1451077470836_height 13
static char 1451077470836_bits[] = {
  0x00, 0x00, 0x02, 0x08, 0x04, 0x04, 0x08, 0x02, 0x10, 0x01, 0xA0, 0x00, 
  0x40, 0x00, 0xA0, 0x00, 0x10, 0x01, 0x08, 0x02, 0x04, 0x04, 0x02, 0x08, 
  0x00, 0x00, };
