#define 1451077236200_width 13
#define 1451077236200_height 13
static char 1451077236200_bits[] = {
  0x00, 0x1E, 0x00, 0x18, 0x00, 0x14, 0x00, 0x12, 0x00, 0x01, 0x00, 0x00, 
  0x00, 0x00, 0x00, 0x00, 0x10, 0x00, 0x09, 0x00, 0x05, 0x00, 0x03, 0x00, 
  0x0F, 0x00, };
