#define 1451077391129_width 13
#define 1451077391129_height 13
static char 1451077391129_bits[] = {
  0x00, 0x00, 0x00, 0x00, 0x80, 0x04, 0x80, 0x02, 0x80, 0x01, 0x80, 0x07, 
  0x00, 0x00, 0x3C, 0x00, 0x30, 0x00, 0x28, 0x00, 0x24, 0x00, 0x00, 0x00, 
  0x00, 0x00, };
